<!DOCTYPE svg PUBLIC "-//W3C//DTD SVG 20010904//EN" "http://www.w3.org/TR/2001/REC-SVG-20010904/DTD/svg10.dtd">
<svg version="1.0" xmlns="http://www.w3.org/2000/svg" width="300px" height="300px" viewBox="0 0 3000 3000" preserveAspectRatio="xMidYMid meet">
<g id="layer1" fill="#020202" stroke="none">
 <path d="M750 2988 c0 -5 -73 -316 -195 -833 -96 -406 -166 -703 -315 -1340 -28 -116 -78 -331 -113 -478 -35 -147 -61 -264 -57 -260 4 4 39 89 79 188 274 683 444 1104 456 1130 7 17 40 98 73 180 75 188 323 805 364 903 16 39 33 72 37 72 4 0 32 -34 62 -75 120 -167 172 -236 174 -233 6 7 95 160 95 163 0 3 21 39 46 81 l47 76 27 -44 c15 -23 55 -94 90 -156 l63 -112 78 107 c44 59 94 128 112 155 17 26 37 49 44 52 7 3 27 -34 51 -97 22 -56 109 -271 192 -477 83 -206 243 -602 355 -880 429 -1066 414 -1029 415 -1007 0 5 -23 102 -51 215 -27 114 -74 308 -104 432 -30 124 -79 329 -110 455 -196 805 -315 1298 -376 1553 -30 122 -57 221 -61 220 -4 -2 -72 -91 -151 -198 -78 -107 -147 -194 -152 -194 -6 1 -46 90 -90 198 -43 108 -82 196 -86 196 -4 0 -23 -28 -42 -62 -19 -35 -43 -79 -54 -98 -11 -19 -47 -82 -80 -139 -33 -58 -64 -106 -69 -108 -5 -2 -63 91 -129 207 -65 115 -120 208 -121 207 -1 -1 -37 -87 -79 -192 -110 -272 -91 -253 -161 -159 -126 172 -264 356 -264 352z"/>
 <path d="M1649 2194 c-51 -75 -149 -204 -155 -204 -2 0 -44 53 -92 119 l-88 118 -20 -36 c-11 -20 -118 -209 -239 -421 -120 -212 -226 -398 -235 -415 -9 -16 -44 -77 -77 -135 -33 -58 -127 -222 -208 -365 -81 -143 -204 -359 -273 -480 -68 -121 -133 -235 -144 -252 -11 -18 -17 -33 -14 -33 4 0 91 118 587 800 98 135 258 353 354 485 97 132 235 322 308 422 72 101 137 183 142 183 6 -1 24 -20 41 -43 41 -56 201 -273 354 -480 69 -93 134 -181 145 -197 11 -15 59 -81 107 -146 176 -239 269 -365 492 -669 216 -293 284 -383 273 -360 -2 6 -60 107 -127 225 -68 118 -137 240 -153 270 -16 30 -33 60 -37 65 -4 6 -19 30 -32 55 -14 25 -89 158 -168 295 -78 138 -151 266 -162 285 -226 399 -335 590 -401 705 -45 77 -95 166 -113 199 l-31 58 -34 -48z"/>
 <path d="M2931 77 c-1 -11 -5 -15 -13 -11 -6 4 -3 -4 8 -18 24 -33 28 -29 15 13 -5 19 -10 26 -10 16z"/>
 <path d="M57 41 c-4 -17 -3 -21 5 -13 5 5 8 16 6 23 -3 8 -7 3 -11 -10z"/>
 </g>
<g id="layer2" fill="#f7f7f7" stroke="none">
 <path d="M0 1500 l0 -1500 1500 0 1500 0 0 1500 0 1500 -1500 0 -1500 0 0 -1500z m1014 1136 c70 -94 51 -113 161 159 42 105 78 191 79 192 1 1 56 -92 121 -207 66 -116 124 -209 129 -207 5 2 36 50 69 108 33 57 69 120 80 139 11 19 35 63 54 98 19 34 38 62 42 62 4 0 43 -88 86 -196 44 -108 84 -197 90 -198 5 0 74 87 152 194 79 107 147 196 151 198 4 1 31 -98 61 -220 61 -255 180 -748 376 -1553 31 -126 80 -331 110 -455 30 -124 77 -318 104 -432 28 -113 51 -210 51 -215 -1 -22 14 -59 -415 1007 -112 278 -272 674 -355 880 -83 206 -170 421 -192 477 -24 63 -44 100 -51 97 -7 -3 -27 -26 -44 -52 -18 -27 -68 -96 -112 -155 l-78 -107 -63 112 c-35 62 -75 133 -90 156 l-27 44 -47 -76 c-25 -42 -46 -78 -46 -81 0 -3 -89 -156 -95 -163 -2 -3 -54 66 -174 233 -30 41 -58 75 -62 75 -4 0 -21 -33 -37 -72 -41 -98 -289 -715 -364 -903 -33 -82 -66 -163 -73 -180 -12 -26 -182 -447 -456 -1130 -40 -99 -75 -184 -79 -188 -4 -4 22 113 57 260 35 147 85 362 113 478 149 637 219 934 315 1340 122 517 195 828 195 833 0 4 138 -180 264 -352z m813 -651 c66 -115 175 -306 401 -705 11 -19 84 -147 162 -285 79 -137 154 -270 168 -295 13 -25 28 -49 32 -55 4 -5 21 -35 37 -65 16 -30 85 -152 153 -270 67 -118 125 -219 127 -225 11 -23 -57 67 -273 360 -223 304 -316 430 -492 669 -48 65 -96 131 -107 146 -11 16 -76 104 -145 197 -153 207 -313 424 -354 480 -17 23 -35 42 -41 43 -5 0 -70 -82 -142 -183 -73 -100 -211 -290 -308 -422 -96 -132 -256 -350 -354 -485 -496 -682 -583 -800 -587 -800 -3 0 3 15 14 33 11 17 76 131 144 252 69 121 192 337 273 480 81 143 175 307 208 365 33 58 68 119 77 135 9 17 115 203 235 415 121 212 228 401 239 421 l20 36 88 -118 c48 -66 90 -119 92 -119 6 0 104 129 155 204 l34 48 31 -58 c18 -33 68 -122 113 -199z m1121 -1960 c-2 -2 -12 9 -22 23 -11 14 -14 22 -8 18 8 -4 12 0 13 11 0 10 5 3 10 -16 6 -18 9 -35 7 -36z m-2886 3 c-8 -8 -9 -4 -5 13 4 13 8 18 11 10 2 -7 -1 -18 -6 -23z"/>
 </g>

</svg>