<svg version="1.0" xmlns="http://www.w3.org/2000/svg" width="512px" height="512px" viewBox="0 0 5120 5120" preserveAspectRatio="xMidYMid meet">
<g id="layer1" fill="#37b1cd" stroke="none">
 <path d="M2265 4895 c-672 -92 -1252 -458 -1632 -1030 -70 -105 -96 -152 -89 -164 5 -8 161 -110 876 -577 206 -135 449 -294 541 -354 91 -59 340 -223 555 -363 214 -140 717 -469 1119 -731 401 -263 734 -478 740 -479 21 -4 81 -143 -653 1503 -220 492 -529 1185 -687 1540 -158 355 -292 651 -297 658 -14 16 -348 14 -473 -3z"/>
 <path d="M3255 4840 c-3 -5 -4 -11 -1 -11 16 -4 26 -7 31 -9 3 -1 10 -4 15 -5 6 -1 12 -4 15 -5 3 -1 8 -3 13 -4 4 -1 13 -5 20 -9 6 -5 12 -5 12 -1 0 3 7 1 15 -6 8 -7 15 -9 15 -5 0 4 6 2 14 -4 9 -8 16 -8 20 -2 4 5 2 12 -4 16 -5 3 -10 3 -10 -1 0 -3 -7 -1 -15 6 -8 7 -15 9 -15 5 0 -4 -7 -2 -15 5 -8 7 -15 9 -15 5 0 -4 -7 -2 -15 5 -8 7 -15 9 -15 5 0 -4 -7 -2 -15 5 -8 7 -15 9 -15 5 0 -4 -6 -2 -14 4 -10 8 -16 9 -21 1z"/>
 <path d="M3177 4824 c-3 -4 5 -28 19 -55 13 -27 24 -51 24 -54 -1 -16 32 -65 40 -60 6 4 4 18 -5 35 -9 17 -15 32 -15 35 0 7 -49 105 -54 105 -1 0 -5 -3 -9 -6z"/>
 <path d="M3456 4771 c-6 -9 17 -28 37 -30 4 0 20 -7 37 -16 17 -9 31 -11 35 -5 3 5 -8 16 -25 25 -16 8 -30 13 -30 10 0 -3 -11 2 -24 10 -15 10 -26 12 -30 6z"/>
 <path d="M3595 4710 c-3 -5 8 -16 24 -25 18 -9 32 -11 36 -5 3 5 -8 16 -24 25 -18 9 -32 11 -36 5z"/>
 <path d="M3705 4650 c-3 -5 8 -16 24 -25 18 -9 32 -11 36 -5 3 5 -8 16 -24 25 -18 9 -32 11 -36 5z"/>
 <path d="M3277 4603 c-4 -6 0 -18 7 -28 8 -11 16 -14 19 -8 4 6 0 18 -7 28 -8 11 -16 14 -19 8z"/>
 <path d="M3825 4581 c-3 -6 3 -15 14 -21 12 -6 22 -6 26 -1 3 6 -3 15 -14 21 -12 6 -22 6 -26 1z"/>
 <path d="M3317 4514 c-3 -4 2 -23 12 -43 11 -20 19 -38 18 -41 0 -3 9 -23 20 -45 12 -22 22 -44 23 -50 6 -28 42 -85 50 -80 6 4 1 24 -12 48 -11 23 -20 42 -18 42 2 0 -7 20 -20 45 -13 25 -23 47 -23 50 1 7 -37 80 -41 80 -1 0 -5 -3 -9 -6z"/>
 <path d="M3936 4512 c-3 -6 1 -15 8 -21 8 -7 17 -8 20 -3 3 6 -1 15 -8 21 -8 7 -17 8 -20 3z"/>
 <path d="M3976 4482 c-3 -6 1 -15 8 -21 8 -7 17 -8 20 -3 3 6 -1 15 -8 21 -8 7 -17 8 -20 3z"/>
 <path d="M4016 4452 c-3 -6 1 -15 8 -21 8 -7 17 -8 20 -3 3 6 -1 15 -8 21 -8 7 -17 8 -20 3z"/>
 <path d="M4066 4412 c-3 -6 1 -15 8 -21 8 -7 17 -8 20 -3 3 6 -1 15 -8 21 -8 7 -17 8 -20 3z"/>
 <path d="M4136 4352 c-3 -5 8 -21 23 -36 16 -15 31 -23 35 -18 3 5 -8 21 -23 36 -16 15 -31 23 -35 18z"/>
 <path d="M3447 4224 c-9 -10 22 -66 33 -59 6 4 4 18 -5 36 -17 31 -18 32 -28 23z"/>
 <path d="M4296 4192 c-3 -5 5 -19 18 -31 13 -13 26 -18 30 -13 3 5 -5 19 -18 31 -13 13 -26 18 -30 13z"/>
 <path d="M3497 4113 c-4 -6 0 -18 7 -28 8 -11 16 -14 19 -8 4 6 0 18 -7 28 -8 11 -16 14 -19 8z"/>
 <path d="M4366 4112 c-3 -6 1 -15 8 -21 8 -7 17 -8 20 -3 3 6 -1 15 -8 21 -8 7 -17 8 -20 3z"/>
 <path d="M3527 4044 c-9 -10 32 -86 43 -79 6 4 1 23 -10 46 -22 41 -23 43 -33 33z"/>
 <path d="M4446 4012 c-3 -6 1 -15 8 -21 8 -7 17 -8 20 -3 3 6 -1 15 -8 21 -8 7 -17 8 -20 3z"/>
 <path d="M4497 3944 c-9 -9 44 -85 54 -78 5 3 1 19 -8 35 -21 36 -38 51 -46 43z"/>
 <path d="M3577 3934 c-3 -4 2 -23 12 -43 11 -20 19 -38 18 -41 -1 -16 45 -90 53 -85 6 4 1 24 -12 48 -11 23 -21 44 -21 47 1 7 -37 80 -41 80 -1 0 -5 -3 -9 -6z"/>
 <path d="M4617 3754 c-9 -10 32 -86 43 -79 6 4 1 23 -10 46 -22 41 -23 43 -33 33z"/>
 <path d="M3667 3733 c-4 -6 0 -18 7 -28 8 -11 16 -14 19 -8 4 6 0 18 -7 28 -8 11 -16 14 -19 8z"/>
 <path d="M4677 3634 c-3 -4 2 -23 12 -43 11 -20 19 -39 20 -44 0 -4 8 -21 16 -37 8 -16 15 -31 14 -32 -2 -2 4 -14 11 -28 8 -14 15 -28 16 -32 1 -5 3 -10 4 -13 1 -3 4 -9 5 -15 1 -5 4 -12 5 -15 1 -3 4 -9 5 -15 1 -5 4 -12 5 -15 1 -3 4 -9 5 -15 1 -5 4 -12 5 -15 1 -3 3 -9 4 -15 0 -5 4 -10 9 -10 4 0 10 0 13 0 4 0 1 7 -6 15 -7 8 -9 15 -5 15 4 0 2 7 -5 15 -7 8 -9 15 -5 15 4 0 2 7 -5 15 -7 8 -9 15 -5 15 4 0 2 7 -5 15 -7 8 -9 15 -5 15 4 0 2 7 -5 15 -7 8 -9 15 -5 15 4 0 0 11 -9 25 -9 14 -14 25 -11 25 3 0 -1 13 -10 30 -8 16 -16 33 -16 37 -1 10 -39 83 -43 83 -1 0 -5 -3 -9 -6z"/>
 <path d="M3717 3623 c-4 -6 0 -18 7 -28 8 -11 16 -14 19 -8 4 6 0 18 -7 28 -8 11 -16 14 -19 8z"/>
 <path d="M3747 3554 c-9 -10 32 -86 43 -79 6 4 1 23 -10 46 -22 41 -23 43 -33 33z"/>
 <path d="M3797 3444 c-3 -4 2 -23 12 -43 11 -20 19 -39 20 -44 2 -21 33 -67 41 -62 6 4 4 18 -5 35 -9 17 -16 33 -16 37 -1 10 -39 83 -43 83 -1 0 -5 -3 -9 -6z"/>
 <path d="M379 3344 c-1 -2 -2 -7 -3 -11 -1 -5 -5 -14 -9 -20 -5 -7 -5 -13 -1 -13 3 0 1 -6 -5 -14 -8 -10 -9 -16 -1 -21 5 -3 11 -4 11 -1 4 16 7 26 9 31 1 3 3 11 4 18 0 6 7 12 14 12 19 0 19 18 0 21 -10 1 -19 0 -19 -2z"/>
 <path d="M486 3282 c-5 -8 20 -27 126 -96 14 -9 29 -13 32 -8 5 8 -20 27 -126 96 -14 9 -29 13 -32 8z"/>
 <path d="M3877 3264 c-9 -10 32 -86 43 -79 6 4 1 23 -10 46 -22 41 -23 43 -33 33z"/>
 <path d="M4816 3261 c-4 -5 -2 -12 4 -16 6 -4 8 -10 5 -15 -3 -5 -1 -11 4 -14 5 -4 12 -2 15 3 4 5 2 12 -4 16 -6 4 -8 10 -5 15 3 5 1 11 -4 14 -5 4 -12 2 -15 -3z"/>
 <path d="M349 3246 c-1 -3 -2 -9 -3 -13 -1 -5 -5 -13 -9 -20 -4 -6 -3 -14 3 -18 5 -3 11 -4 11 -1 1 3 2 9 3 14 1 4 5 12 9 19 4 6 3 14 -3 18 -5 3 -11 4 -11 1z"/>
 <path d="M3927 3153 c-4 -6 0 -18 7 -28 8 -11 16 -14 19 -8 4 6 0 18 -7 28 -8 11 -16 14 -19 8z"/>
 <path d="M806 3071 c-7 -11 55 -52 68 -44 5 3 0 12 -10 20 -34 26 -53 33 -58 24z"/>
 <path d="M3967 3064 c-3 -4 5 -28 19 -55 13 -27 24 -51 24 -54 -1 -16 32 -65 40 -60 6 4 4 18 -5 35 -9 17 -15 32 -15 35 0 7 -49 105 -54 105 -1 0 -5 -3 -9 -6z"/>
 <path d="M295 3030 c-4 -6 -3 -16 3 -22 6 -6 12 -6 17 2 4 6 3 16 -3 22 -6 6 -12 6 -17 -2z"/>
 <path d="M4875 2990 c-4 -6 -3 -16 3 -22 6 -6 12 -6 17 2 4 6 3 16 -3 22 -6 6 -12 6 -17 -2z"/>
 <path d="M285 2970 c-4 -6 -3 -16 3 -22 6 -6 12 -6 17 2 4 6 3 16 -3 22 -6 6 -12 6 -17 -2z"/>
 <path d="M4884 2916 c-4 -10 -2 -22 4 -28 8 -8 13 -7 18 6 4 10 2 22 -4 28 -8 8 -13 7 -18 -6z"/>
 <path d="M275 2900 c-4 -6 -3 -16 3 -22 6 -6 12 -6 17 2 4 6 3 16 -3 22 -6 6 -12 6 -17 -2z"/>
 <path d="M1095 2881 c-3 -6 3 -15 14 -21 12 -6 22 -6 26 -1 3 6 -3 15 -14 21 -12 6 -22 6 -26 1z"/>
 <path d="M4057 2864 c-9 -10 22 -66 33 -59 6 4 4 18 -5 36 -17 31 -18 32 -28 23z"/>
 <path d="M4895 2827 c-9 -22 -2 -62 10 -60 6 1 11 14 13 29 4 32 -14 56 -23 31z"/>
 <path d="M264 2796 c-8 -21 3 -49 16 -41 13 8 13 42 0 50 -6 3 -13 -1 -16 -9z"/>
 <path d="M4107 2753 c-4 -6 0 -18 7 -28 8 -11 16 -14 19 -8 4 6 0 18 -7 28 -8 11 -16 14 -19 8z"/>
 <path d="M4147 2663 c-4 -6 0 -18 7 -28 8 -11 16 -14 19 -8 4 6 0 18 -7 28 -8 11 -16 14 -19 8z"/>
 <path d="M1446 2651 c-7 -11 55 -52 68 -44 5 3 0 12 -10 20 -34 26 -53 33 -58 24z"/>
 <path d="M4187 2574 c-3 -4 2 -23 12 -43 11 -20 19 -38 18 -41 -1 -16 45 -90 53 -85 6 4 1 24 -12 48 -11 23 -21 44 -21 47 1 7 -37 80 -41 80 -1 0 -5 -3 -9 -6z"/>
 <path d="M4894 2476 c-8 -21 3 -49 16 -41 5 3 10 15 10 25 0 25 -18 36 -26 16z"/>
 <path d="M264 2456 c-8 -21 3 -49 16 -41 5 3 10 15 10 25 0 25 -18 36 -26 16z"/>
 <path d="M4884 2376 c-8 -21 3 -49 16 -41 5 3 10 15 10 25 0 25 -18 36 -26 16z"/>
 <path d="M4277 2374 c-3 -4 2 -23 12 -43 11 -20 19 -39 20 -44 2 -21 33 -67 41 -62 6 4 4 18 -5 35 -9 17 -16 33 -16 37 -1 10 -39 83 -43 83 -1 0 -5 -3 -9 -6z"/>
 <path d="M275 2350 c-4 -6 -3 -16 3 -22 6 -6 12 -6 17 2 4 6 3 16 -3 22 -6 6 -12 6 -17 -2z"/>
 <path d="M4875 2300 c-4 -6 -3 -16 3 -22 6 -6 12 -6 17 2 4 6 3 16 -3 22 -6 6 -12 6 -17 -2z"/>
 <path d="M4865 2240 c-4 -6 -3 -16 3 -22 6 -6 12 -6 17 2 4 6 3 16 -3 22 -6 6 -12 6 -17 -2z"/>
 <path d="M4367 2173 c-4 -6 0 -18 7 -28 8 -11 16 -14 19 -8 4 6 0 18 -7 28 -8 11 -16 14 -19 8z"/>
 <path d="M2196 2161 c-3 -5 5 -16 19 -25 24 -16 45 -6 22 11 -24 19 -36 23 -41 14z"/>
 <path d="M2285 2101 c-3 -6 3 -15 14 -21 12 -6 22 -6 26 -1 3 6 -3 15 -14 21 -12 6 -22 6 -26 1z"/>
 <path d="M4407 2084 c-9 -10 22 -66 33 -59 6 4 4 18 -5 36 -17 31 -18 32 -28 23z"/>
 <path d="M4819 2016 c-1 -3 -2 -9 -3 -13 -1 -5 -5 -14 -9 -20 -5 -7 -5 -13 -1 -13 3 0 1 -6 -5 -14 -8 -10 -9 -16 -1 -21 5 -3 11 -4 11 -1 4 16 7 26 9 31 1 3 3 8 4 13 1 4 5 12 9 19 4 6 3 14 -3 18 -5 3 -11 4 -11 1z"/>
 <path d="M346 1991 c-4 -5 -2 -12 4 -16 6 -4 8 -10 5 -15 -3 -5 -1 -11 4 -14 5 -4 12 -2 15 3 4 5 2 12 -4 16 -6 4 -8 10 -5 15 3 5 1 11 -4 14 -5 4 -12 2 -15 -3z"/>
 <path d="M4447 1994 c-9 -10 22 -66 33 -59 6 4 4 18 -5 36 -17 31 -18 32 -28 23z"/>
 <path d="M2546 1931 c-3 -5 12 -20 34 -35 44 -29 66 -18 23 12 -44 30 -51 33 -57 23z"/>
 <path d="M375 1900 c-4 -6 -1 -17 5 -25 7 -8 9 -15 5 -15 -4 0 0 -11 9 -25 9 -14 14 -25 10 -25 -4 0 -1 -7 6 -15 7 -8 9 -15 6 -15 -4 0 -2 -9 4 -20 6 -11 16 -18 21 -14 6 4 4 15 -6 30 -8 13 -13 24 -9 24 4 0 1 7 -6 15 -7 8 -9 15 -6 15 4 0 1 10 -6 23 -7 12 -11 27 -10 34 3 16 -15 26 -23 13z"/>
 <path d="M4487 1904 c-9 -10 22 -66 33 -59 6 4 4 18 -5 36 -17 31 -18 32 -28 23z"/>
 <path d="M4779 1896 c-1 -3 -2 -9 -3 -13 -1 -5 -5 -14 -9 -20 -5 -7 -5 -13 -1 -13 3 0 1 -6 -5 -14 -8 -10 -9 -16 -1 -21 5 -3 11 -4 11 -1 4 16 7 26 9 31 1 3 3 8 4 13 1 4 5 12 9 19 4 6 3 14 -3 18 -5 3 -11 4 -11 1z"/>
 <path d="M4537 1794 c-9 -10 22 -66 33 -59 6 4 4 18 -5 36 -17 31 -18 32 -28 23z"/>
 <path d="M4731 1773 c-5 -10 -9 -20 -9 -23 1 -3 -9 -24 -20 -47 -13 -24 -18 -44 -12 -48 5 -3 18 12 30 35 11 22 18 40 15 40 -3 0 2 11 10 24 10 15 12 26 6 30 -5 4 -14 -1 -20 -11z"/>
 <path d="M2836 1742 c-5 -9 8 -19 96 -76 14 -10 29 -13 32 -8 5 9 -8 19 -96 76 -14 10 -29 13 -32 8z"/>
 <path d="M447 1714 c-9 -10 22 -66 33 -59 6 4 4 18 -5 36 -17 31 -18 32 -28 23z"/>
 <path d="M4587 1683 c-4 -6 0 -18 7 -28 8 -11 16 -14 19 -8 4 6 0 18 -7 28 -8 11 -16 14 -19 8z"/>
 <path d="M4618 1614 c-4 -3 0 -20 8 -36 9 -17 19 -26 24 -22 11 12 17 32 8 31 -4 -1 -13 6 -20 16 -8 10 -17 15 -20 11z"/>
 <path d="M3156 1531 c-7 -11 55 -52 68 -44 5 3 0 12 -10 20 -34 26 -53 33 -58 24z"/>
 <path d="M547 1513 c-4 -6 0 -18 7 -28 8 -11 16 -14 19 -8 4 6 0 18 -7 28 -8 11 -16 14 -19 8z"/>
 <path d="M3236 1481 c-6 -8 5 -20 31 -35 23 -13 22 12 -2 28 -13 9 -26 12 -29 7z"/>
 <path d="M587 1444 c-8 -13 33 -75 44 -68 9 5 2 24 -24 58 -8 10 -17 15 -20 10z"/>
 <path d="M3446 1341 c-3 -5 5 -16 19 -25 24 -16 45 -6 22 11 -24 19 -36 23 -41 14z"/>
 <path d="M676 1302 c-3 -6 1 -15 8 -21 8 -7 17 -8 20 -3 3 6 -1 15 -8 21 -8 7 -17 8 -20 3z"/>
 <path d="M3505 1301 c-3 -6 3 -15 14 -21 12 -6 22 -6 26 -1 3 6 -3 15 -14 21 -12 6 -22 6 -26 1z"/>
 <path d="M3766 1131 c-7 -11 55 -52 68 -44 5 3 0 12 -10 20 -34 26 -53 33 -58 24z"/>
 <path d="M816 1122 c-3 -5 3 -17 13 -26 11 -10 22 -13 25 -8 3 5 -3 17 -13 26 -11 10 -22 13 -25 8z"/>
 <path d="M1026 912 c-3 -5 3 -17 13 -26 11 -10 22 -13 25 -8 3 5 -3 17 -13 26 -11 10 -22 13 -25 8z"/>
 <path d="M4041 866 c-13 -13 -18 -26 -13 -30 5 -3 19 5 31 18 13 13 18 26 13 30 -5 3 -19 -5 -31 -18z"/>
 <path d="M1096 852 c-3 -6 1 -15 8 -21 8 -7 17 -8 20 -3 3 6 -1 15 -8 21 -8 7 -17 8 -20 3z"/>
 <path d="M3986 821 c-10 -11 -13 -22 -8 -25 5 -3 17 3 26 13 10 11 13 22 8 25 -5 3 -17 -3 -26 -13z"/>
 <path d="M1146 812 c-3 -6 1 -15 8 -21 8 -7 17 -8 20 -3 3 6 -1 15 -8 21 -8 7 -17 8 -20 3z"/>
 <path d="M3855 726 c-11 -8 -14 -16 -8 -19 6 -4 18 0 28 7 11 8 14 16 8 19 -6 4 -18 0 -28 -7z"/>
 <path d="M3795 686 c-11 -8 -14 -16 -8 -19 6 -4 18 0 28 7 11 8 14 16 8 19 -6 4 -18 0 -28 -7z"/>
 <path d="M3722 643 c-45 -27 -49 -52 -4 -29 43 23 66 43 56 49 -5 3 -28 -6 -52 -20z"/>
 <path d="M1375 650 c-3 -5 8 -16 24 -25 18 -9 32 -11 36 -5 3 5 -8 16 -24 25 -18 9 -32 11 -36 5z"/>
 <path d="M1445 610 c-3 -5 17 -21 44 -35 29 -14 52 -21 56 -15 3 5 -17 21 -44 35 -29 14 -52 21 -56 15z"/>
 <path d="M3597 574 c-26 -14 -45 -29 -42 -34 4 -6 28 1 56 15 27 14 47 30 44 35 -7 12 -1 14 -58 -16z"/>
 <path d="M1585 541 c-3 -6 3 -15 14 -21 12 -6 22 -6 26 -1 3 6 -3 15 -14 21 -12 6 -22 6 -26 1z"/>
 <path d="M3475 516 c-11 -8 -14 -16 -8 -19 6 -4 18 0 28 7 11 8 14 16 8 19 -6 4 -18 0 -28 -7z"/>
 <path d="M3402 484 c-12 -8 -22 -12 -22 -8 0 3 -7 1 -15 -6 -8 -7 -15 -9 -15 -5 0 4 -7 2 -15 -5 -8 -7 -15 -9 -15 -5 0 4 -7 2 -15 -5 -8 -7 -15 -9 -15 -5 0 4 -7 2 -15 -5 -8 -7 -15 -9 -15 -5 0 4 -7 2 -15 -5 -8 -7 -15 -9 -15 -5 0 4 -6 2 -13 -4 -8 -6 -17 -8 -20 -5 -3 3 -12 2 -19 -2 -7 -5 -16 -9 -20 -9 -5 0 -8 -3 -8 -7 0 -5 0 -11 0 -14 0 -4 6 -1 13 5 8 6 17 8 20 5 3 -3 12 -2 19 2 7 5 16 9 21 10 4 1 9 3 12 4 3 1 10 4 15 5 6 1 12 4 15 5 3 1 10 4 15 5 6 1 12 4 15 5 3 1 10 4 15 5 6 1 12 4 15 5 3 1 10 4 15 5 6 1 12 4 15 5 3 1 10 4 15 5 6 1 11 3 13 5 1 1 10 3 21 5 24 5 41 21 29 28 -6 4 -19 -1 -31 -9z"/>
 <path d="M1775 460 c-3 -5 -4 -11 -1 -11 16 -4 26 -7 31 -9 3 -1 10 -4 15 -5 6 -1 12 -4 15 -5 3 -1 8 -3 13 -4 4 -1 13 -5 20 -9 6 -5 12 -5 12 -1 0 3 7 1 15 -6 9 -7 18 -10 22 -7 3 4 12 2 20 -4 7 -6 13 -8 13 -4 0 4 7 2 15 -5 9 -7 18 -10 22 -7 3 4 12 2 19 -4 7 -6 18 -8 24 -4 14 9 1 28 -16 21 -7 -3 -16 -1 -20 5 -3 6 -12 8 -19 5 -7 -2 -18 1 -24 7 -6 6 -11 7 -11 3 0 -5 -7 -3 -15 4 -9 7 -18 10 -22 7 -3 -4 -12 -2 -20 4 -7 6 -13 8 -13 4 0 -4 -7 -2 -15 5 -8 7 -15 9 -15 5 0 -4 -7 -2 -15 5 -8 7 -15 9 -15 5 0 -4 -6 -2 -14 4 -10 8 -16 9 -21 1z"/>
 <path d="M2955 361 c-7 -12 12 -24 25 -16 11 7 4 25 -10 25 -5 0 -11 -4 -15 -9z"/>
 <path d="M2205 351 c-7 -12 12 -24 25 -16 11 7 4 25 -10 25 -5 0 -11 -4 -15 -9z"/>
 <path d="M2895 351 c-7 -12 12 -24 25 -16 11 7 4 25 -10 25 -5 0 -11 -4 -15 -9z"/>
 <path d="M2285 341 c-7 -12 12 -24 25 -16 11 7 4 25 -10 25 -5 0 -11 -4 -15 -9z"/>
 <path d="M2825 341 c-7 -12 12 -24 25 -16 11 7 4 25 -10 25 -5 0 -11 -4 -15 -9z"/>
 <path d="M2385 330 c-8 -12 20 -24 35 -15 6 3 8 11 5 16 -8 12 -32 12 -40 -1z"/>
 <path d="M2715 331 c-7 -12 12 -24 25 -16 11 7 4 25 -10 25 -5 0 -11 -4 -15 -9z"/>
 </g>
<g id="layer2" fill="#1d688f" stroke="none">
 <path d="M3165 4860 c-3 -5 2 -24 11 -42 10 -18 45 -96 79 -173 35 -77 122 -273 195 -435 73 -162 172 -383 220 -490 48 -107 136 -303 195 -435 59 -132 156 -348 215 -480 218 -486 410 -914 480 -1070 39 -88 75 -164 79 -168 27 -27 164 309 216 528 91 381 83 794 -22 1160 -221 772 -830 1381 -1595 1595 -38 10 -70 15 -73 10z"/>
 <path d="M382 3337 c-18 -22 -69 -217 -93 -358 -30 -179 -33 -524 -6 -699 113 -724 541 -1333 1187 -1689 235 -129 488 -214 770 -258 174 -27 511 -24 685 5 360 62 672 188 965 391 77 53 220 171 220 181 0 4 -78 58 -172 119 -170 110 -235 153 -628 410 -107 70 -544 357 -970 636 -426 279 -872 571 -990 649 -251 165 -480 315 -728 476 -97 64 -189 124 -203 133 -21 14 -28 15 -37 4z"/>
 </g>

</svg>
